Coordinates
version=1
nRows=29
nColumns=24
inDegrees=yes

Units are S.I. units (second, meters, Newtons, ...)
Angles are in degrees.

endheader
time	pelvis_tilt	pelvis_list	pelvis_rotation	pelvis_tx	pelvis_ty	pelvis_tz	hip_flexion_r	hip_adduction_r	hip_rotation_r	knee_angle_r	ankle_angle_r	subtalar_angle_r	mtp_angle_r	hip_flexion_l	hip_adduction_l	hip_rotation_l	knee_angle_l	ankle_angle_l	subtalar_angle_l	mtp_angle_l	lumbar_extension	lumbar_bending	lumbar_rotation
      1.12883333	      4.16674333	      4.25329244	     -2.58462141	      0.14793683	      1.00326774	      0.35758947	    -11.71636434	     -6.67959262	     -6.16626961	    -43.21922878	    -19.40037297	     -4.72242476	     39.17540079	     12.83083794	     10.28576173	      5.22544881	    -17.67637563	      1.45586947	    -17.02116517	     -3.71999207	    -15.23375847	      0.60033634	      0.67280756
      1.13300000	      4.21423992	      4.43055526	     -2.64631489	      0.15334532	      1.00296221	      0.35722865	    -11.16624123	     -7.02135302	     -6.16278715	    -44.55066256	    -20.66571707	     -5.15032568	     38.93361994	     12.74916294	     10.53927805	      5.08938050	    -18.28853384	      1.95289416	    -16.96378246	     -3.78779100	    -15.29438369	      0.40258520	      0.56220920
      1.13716667	      4.30286846	      4.61553487	     -2.74289622	      0.15875555	      1.00275233	      0.35689962	    -10.64313451	     -7.38009227	     -6.11297848	    -45.88068788	    -21.84073650	     -5.36351506	     33.28117611	     12.57333881	     10.79548953	      4.95515835	    -18.80042903	      2.58865627	    -16.80812940	     -5.33692197	    -15.38532320	      0.20175518	      0.48409024
      1.14133333	      4.37715424	      4.82668058	     -2.83222400	      0.16415362	      1.00256228	      0.35653943	    -10.09368260	     -7.77311835	     -6.08713061	    -47.19237520	    -23.04215799	     -5.70085831	     33.16373926	     12.37133935	     11.08632569	      4.87608243	    -19.21033294	      3.02844317	    -16.85605000	     -5.32067739	    -15.45250115	     -0.01439400	      0.34576517
      1.14550000	      4.41993229	      4.99067651	     -2.92501250	      0.16951453	      1.00240076	      0.35622497	     -9.50379745	     -8.09106502	     -5.99301079	    -48.45909780	    -24.25986384	     -6.06442162	     32.77288871	     12.18766350	     11.31465306	      4.77780159	    -19.59859313	      3.55303738	    -16.77629025	     -5.31294366	    -15.49602307	     -0.20031695	      0.22706601
      1.14966667	      4.53779298	      5.21279743	     -3.01321994	      0.17483213	      1.00233296	      0.35587936	     -8.98208207	     -8.49320098	     -5.96414404	    -49.72806615	    -25.36249047	     -6.41465839	     32.46388889	     11.89345603	     11.61192096	      4.68545016	    -19.90104588	      3.93753329	    -16.78709134	     -5.31165130	    -15.63896874	     -0.45615820	      0.10922351
      1.15383333	      4.61743867	      5.37754475	     -3.12233211	      0.18015547	      1.00228938	      0.35557129	     -8.40857297	     -8.81304143	     -5.84920635	    -50.96844219	    -26.35191824	     -6.61704780	     24.67094415	     11.60992999	     11.83721693	      4.58076944	    -20.15522896	      4.44662913	    -16.70259751	     -5.58355610	    -15.71119209	     -0.61611891	      0.02795375
      1.15800000	      4.68849155	      5.57511079	     -3.22902983	      0.18546834	      1.00228170	      0.35525002	     -7.82095200	     -9.17336038	     -5.75102871	    -52.16630507	    -27.33676104	     -6.93387035	     24.58373443	     11.29503621	     12.10307275	      4.52433555	    -20.31068666	      4.81071261	    -16.73036192	     -5.57419979	    -15.77540939	     -0.82435294	     -0.10710788
      1.16216667	      4.78351175	      5.70947236	     -3.32848536	      0.19072042	      1.00236054	      0.35494790	     -7.26371559	     -9.44294987	     -5.62900058	    -53.29990826	    -28.30158635	     -7.39127671	     24.24954462	     10.95565411	     12.29553020	      4.42865445	    -20.48164904	      5.23148287	    -16.71861593	     -5.57060319	    -15.88405268	     -0.93924109	     -0.22874513
      1.16633333	      4.86271625	      5.86436543	     -3.45787486	      0.19597242	      1.00248042	      0.35471760	     -6.66718677	     -9.72572192	     -5.44719364	    -54.43293867	    -29.00686334	     -7.57972384	     17.51731657	     10.59391589	     12.49810430	      4.31941858	    -20.55466444	      5.61016214	    -16.63921277	     -5.73067235	    -15.96747955	     -1.11746932	     -0.33369363
      1.17050000	      4.94575880	      6.02428671	     -3.55556317	      0.20122465	      1.00263845	      0.35439916	     -6.08943664	    -10.02078861	     -5.32479085	    -55.50057242	    -29.68177137	     -7.88634145	     17.44102671	     10.19293695	     12.72424893	      4.30251852	    -20.56193601	      5.93442114	    -16.66232110	     -5.72200664	    -16.04685974	     -1.27291721	     -0.46089497
      1.17466667	      5.02775970	      6.15009884	     -3.66525218	      0.20644658	      1.00285991	      0.35412784	     -5.50832883	    -10.25896813	     -5.15927210	    -56.51340528	    -30.25575342	     -8.23230720	     17.30369450	      9.77803429	     12.90530864	      4.25547983	    -20.53769688	      6.23940416	    -16.67120676	     -5.71559580	    -16.13171668	     -1.39185560	     -0.58844741
      1.17883333	      5.09437227	      6.22910150	     -3.77426281	      0.21163459	      1.00312601	      0.35390251	     -4.90867245	    -10.41730609	     -4.95287147	    -57.48664304	    -30.61782421	     -8.51197778	     11.22470944	      9.37477406	     13.02706950	      4.18546734	    -20.51398422	      6.59135335	    -16.59213751	     -5.80525662	    -16.20480933	     -1.46461105	     -0.67579654
      1.18300000	      5.17534855	      6.32880080	     -3.88283041	      0.21682683	      1.00345870	      0.35364059	     -4.32992648	    -10.60637027	     -4.76510225	    -58.40214707	    -30.86257894	     -8.78663725	     11.17211272	      8.91593163	     13.17973746	      4.15905594	    -20.39649930	      6.84032587	    -16.61728713	     -5.79902996	    -16.28993551	     -1.54448940	     -0.81839382
      1.18716667	      5.24742517	      6.40118494	     -3.99001118	      0.22200915	      1.00384307	      0.35340435	     -3.74885466	    -10.74645650	     -4.55802892	    -59.25727383	    -30.96637048	     -9.07862398	     11.08414343	      8.44849258	     13.30072292	      4.14225623	    -20.24782202	      7.08063665	    -16.63421814	     -5.79395235	    -16.36325377	     -1.59513858	     -0.94848341
      1.19133333	      5.32527774	      6.45286505	     -4.09590485	      0.22717718	      1.00428552	      0.35317776	     -3.18078412	    -10.85094835	     -4.34346853	    -60.05535436	    -30.90448176	     -9.36605696	     10.97353199	      7.96035208	     13.39827244	      4.12454352	    -20.07308111	      7.30000423	    -16.64024314	     -5.79008960	    -16.43661680	     -1.61796985	     -1.07341187
      1.19550000	      5.39435640	      6.48035421	     -4.19675114	      0.23234081	      1.00479790	      0.35296066	     -2.61425182	    -10.91397454	     -4.12357884	    -60.78737677	    -30.67004999	     -9.63837167	     10.83835746	      7.45737340	     13.46746695	      4.11442010	    -19.85010978	      7.49776888	    -16.64105447	     -5.78779058	    -16.51531587	     -1.62117203	     -1.19906647
      1.19966667	      5.45812809	      6.49511871	     -4.28283728	      0.23748862	      1.00535300	      0.35272366	     -2.04947692	    -10.94513257	     -3.89992747	    -61.47398753	    -30.21527647	     -9.82705510	      5.09749324	      6.92709874	     13.53723446	      4.21342215	    -19.56574386	      7.58288614	    -16.80073573	     -5.91011256	    -16.55806948	     -1.56914648	     -1.52041735
      1.20383333	      5.51133286	      6.47622140	     -4.37745546	      0.24260919	      1.00593569	      0.35252696	     -1.48238183	    -10.92505867	     -3.65786726	    -62.09600330	    -29.59290803	    -10.04378820	      5.07868364	      6.42858914	     13.54919084	      4.18213028	    -19.32548973	      7.78007122	    -16.71926156	     -5.90557911	    -16.62631706	     -1.52401779	     -1.52797954
      1.20800000	      5.55884908	      6.43252594	     -4.46770377	      0.24773433	      1.00657509	      0.35234167	     -0.92498482	    -10.86127322	     -3.41025818	    -62.64438997	    -28.85085847	    -10.26967332	      5.05061920	      5.91203438	     13.53515541	      4.17620970	    -19.04043225	      7.94191072	    -16.67268080	     -5.90356564	    -16.67789733	     -1.44270016	     -1.60176684
      1.21216667	      5.60945144	      6.38346377	     -4.55490940	      0.25285739	      1.00725973	      0.35216129	     -0.38223671	    -10.78115669	     -3.15611952	    -63.13589577	    -27.91347174	    -10.37558698	      4.97858227	      5.36976659	     13.51636878	      4.19194491	    -18.70902287	      8.07232746	    -16.62483133	     -5.90606883	    -16.72395053	     -1.36123843	     -1.73128854
      1.21633333	      5.64253297	      6.29000564	     -4.62045256	      0.25793845	      1.00796943	      0.35195850	      0.16094091	    -10.63450306	     -2.92418917	    -63.55666479	    -26.89149962	    -10.64988555	      4.93965631	      4.85298614	     13.45040692	      4.21459159	    -18.40342108	      8.18469273	    -16.61978754	     -5.90867583	    -16.77216488	     -1.19854619	     -1.82301676
      1.22050000	      5.68890621	      6.20614077	     -4.69361940	      0.26304719	      1.00875129	      0.35178336	      0.67645067	    -10.49023886	     -2.67382978	    -63.91364132	    -25.66691221	    -10.70625077	      4.85636839	      4.28482969	     13.39427074	      4.26154032	    -18.01487768	      8.26470592	    -16.59620759	     -5.91843161	    -16.80863757	     -1.06939218	     -1.98000538
      1.22466667	      5.71191725	      6.08658514	     -4.74570063	      0.26812881	      1.00952701	      0.35157595	      1.19968718	    -10.29401821	     -2.44518718	    -64.20666538	    -24.36208871	    -10.85447035	      4.75847012	      3.74531436	     13.29930502	      4.31286765	    -17.64402407	      8.33504007	    -16.59479559	     -5.93371536	    -16.83212064	     -0.87586740	     -2.11241861
      1.22883333	      5.72251551	      5.94310617	     -4.79056968	      0.27318709	      1.01033061	      0.35138880	      1.72071950	    -10.05210473	     -2.21021687	    -64.43113322	    -22.96551321	    -11.00392787	      4.67614166	      3.21427808	     13.17439683	      4.36478653	    -17.26581157	      8.39292169	    -16.58017210	     -5.95074300	    -16.85258655	     -0.66773707	     -2.23905811
      1.23300000	      5.73685821	      5.78955243	     -4.82663037	      0.27824193	      1.01117492	      0.35118312	      2.22092083	     -9.79507231	     -1.99061429	    -64.58824300	    -21.48810949	    -11.13998567	      4.59126976	      2.66761093	     13.03889333	      4.42325473	    -16.86417924	      8.43402076	    -16.56516988	     -5.97273579	    -16.87301686	     -0.43718695	     -2.36968137
      1.23716667	      5.74900084	      5.61778662	     -4.85250003	      0.28327921	      1.01202369	      0.35098076	      2.70740413	     -9.50844665	     -1.78060652	    -64.68229550	    -19.94913936	    -11.27068598	      4.50623107	      2.12024884	     12.88144887	      4.48087587	    -16.45887925	      8.46882248	    -16.54583737	     -5.99901727	    -16.89658748	     -0.18825005	     -2.50354272
      1.24133333	      5.76077993	      5.43522404	     -4.87085543	      0.28830664	      1.01290006	      0.35076867	      3.17875736	     -9.20252386	     -1.57871261	    -64.70936709	    -18.37726796	    -11.40835204	      4.42654449	      1.56614104	     12.71169760	      4.54316378	    -16.03859821	      8.48875389	    -16.51935582	     -6.02869941	    -16.92044586	      0.07675688	     -2.63392813
      1.24550000	      5.74769662	      5.24402214	     -4.87676116	      0.29332428	      1.01374582	      0.35054333	      3.66427870	     -8.88072277	     -1.39059877	    -64.67810837	    -16.78090415	    -11.53438913	      4.33800645	      1.03805811	     12.52948649	      4.60696091	    -15.61682522	      8.49991282	    -16.49110532	     -6.06534723	    -16.91816933	      0.35853687	     -2.77147088
